<svg id="Icons" xmlns="http://www.w3.org/2000/svg" viewBox="0 0 128 128"><defs><style>.cls-1{fill:none;stroke:#fff;stroke-linecap:round;stroke-linejoin:round;stroke-width:2.5px;}</style></defs><title>ICON-FEATURE</title><path d="M86.93,27q-2.41.12-4.81.21v0l-11.5-8.85a9.75,9.75,0,0,0-12.21-.18L46,27.24q-2.4-.09-4.81-.21C32.12,26.58,25,24,25,36.47s1.69,32.69,1.69,32.69-1,15.17,16.51,28c15.07,11,20.78,15,20.78,15h0s5.82-4,20.9-15c17.52-12.81,16.51-28,16.51-28s1.69-20.22,1.69-32.69S96,26.58,86.93,27"/><path class="cls-1" d="M73,38.26a24.1,24.1,0,1,0,6.46,3.87h0l-19,28.73L50.25,57.29"/></svg>